<svg xmlns:dc="http://purl.org/dc/elements/1.1/" xmlns:cc="http://creativecommons.org/ns#" xmlns:rdf="http://www.w3.org/1999/02/22-rdf-syntax-ns#" xmlns:svg="http://www.w3.org/2000/svg" xmlns="http://www.w3.org/2000/svg" xmlns:sodipodi="http://sodipodi.sourceforge.net/DTD/sodipodi-0.dtd" xmlns:inkscape="http://www.inkscape.org/namespaces/inkscape" version="1.1" viewBox="0 0 16.933333 21.1666675" x="0px" y="0px"><title>arrow up price</title><g><path style="color:#000000;font-style:normal;font-variant:normal;font-weight:normal;font-stretch:normal;font-size:medium;line-height:normal;font-family:sans-serif;font-variant-ligatures:normal;font-variant-position:normal;font-variant-caps:normal;font-variant-numeric:normal;font-variant-alternates:normal;font-variant-east-asian:normal;font-feature-settings:normal;font-variation-settings:normal;text-indent:0;text-align:start;text-decoration:none;text-decoration-line:none;text-decoration-style:solid;text-decoration-color:#000000;letter-spacing:normal;word-spacing:normal;text-transform:none;writing-mode:lr-tb;direction:ltr;text-orientation:mixed;dominant-baseline:auto;baseline-shift:baseline;text-anchor:start;white-space:normal;shape-padding:0;shape-margin:0;inline-size:0;clip-rule:nonzero;display:inline;overflow:visible;visibility:visible;isolation:auto;mix-blend-mode:normal;color-interpolation:sRGB;color-interpolation-filters:linearRGB;solid-color:#000000;solid-opacity:1;vector-effect:none;fill:#000000;fill-opacity:1;fill-rule:nonzero;stroke:none;stroke-width:1.05833;stroke-linecap:round;stroke-linejoin:round;stroke-miterlimit:4;stroke-dasharray:none;stroke-dashoffset:0;stroke-opacity:1;color-rendering:auto;image-rendering:auto;shape-rendering:auto;text-rendering:auto;enable-background:accumulate;stop-color:#000000;stop-opacity:1;opacity:1" d="M 8.4433594 2.1171875 A 0.52921795 0.52921795 0 0 0 8.1464844 2.2246094 L 2.5898438 6.4589844 A 0.52921795 0.52921795 0 0 0 2.9101562 7.4082031 L 4.7617188 7.4082031 L 4.7617188 14.287109 A 0.52921795 0.52921795 0 0 0 5.2910156 14.816406 L 11.642578 14.816406 A 0.52921795 0.52921795 0 0 0 12.169922 14.287109 L 12.169922 7.4082031 L 14.023438 7.4082031 A 0.52921795 0.52921795 0 0 0 14.34375 6.4589844 L 8.7871094 2.2246094 A 0.52921795 0.52921795 0 0 0 8.4433594 2.1171875 z M 8.4667969 3.3105469 L 12.455078 6.3496094 L 11.642578 6.3496094 A 0.52921795 0.52921795 0 0 0 11.113281 6.8789062 L 11.113281 13.757812 L 5.8203125 13.757812 L 5.8203125 6.8789062 A 0.52921795 0.52921795 0 0 0 5.2910156 6.3496094 L 4.4785156 6.3496094 L 8.4667969 3.3105469 z "/><g style="" transform="matrix(0.26953769,0,0,0.25972006,-2.256566e-7,-48.947917)" fill="#000000" stroke-width="1"><path d="m 30.926062,237.31162 v -1.82156 c -0.91078,-0.11469 -1.652897,-0.31709 -2.226351,-0.60719 -0.566707,-0.29685 -1.059203,-0.77248 -1.477487,-1.42689 -0.411537,-0.65441 -0.651039,-1.45387 -0.718504,-2.39838 l 1.831679,-0.34408 c 0.141677,0.97825 0.391299,1.69675 0.748864,2.15552 0.512735,0.64767 1.126668,1.0086 1.841799,1.08281 v -5.79863 c -0.748863,-0.14167 -1.514593,-0.43177 -2.297189,-0.8703 -0.580201,-0.32383 -1.028844,-0.77248 -1.34593,-1.34593 -0.31034,-0.57345 -0.46551,-1.22449 -0.46551,-1.95312 0,-1.29533 0.458763,-2.34441 1.37629,-3.14725 0.613933,-0.53972 1.524712,-0.8703 2.732339,-0.99173 v -0.8703 h 1.072696 v 0.8703 c 1.059203,0.10119 1.899145,0.41153 2.519824,0.93102 0.796089,0.66115 1.275092,1.56856 1.437008,2.72222 l -1.882278,0.28335 c -0.107944,-0.71513 -0.333952,-1.2616 -0.678025,-1.6394 -0.337326,-0.38455 -0.802836,-0.63755 -1.396529,-0.75899 v 5.25217 c 0.917527,0.22938 1.524713,0.40816 1.82156,0.53634 0.566707,0.24963 1.028844,0.55322 1.386409,0.91078 0.357565,0.35757 0.630799,0.7826 0.819702,1.2751 0.195649,0.49249 0.293473,1.02547 0.293473,1.59892 0,1.2616 -0.401418,2.31406 -1.204253,3.15737 -0.802835,0.84331 -1.841799,1.29533 -3.116891,1.35605 v 1.8418 z m 0,-15.94877 c -0.708384,0.10795 -1.268345,0.3913 -1.679883,0.85006 -0.404791,0.45877 -0.607186,1.00186 -0.607186,1.62929 0,0.62068 0.172036,1.14016 0.516108,1.55844 0.350819,0.41829 0.94114,0.75224 1.770961,1.00186 z m 1.072696,12.589 c 0.708385,-0.0877 1.291958,-0.39467 1.750721,-0.9209 0.46551,-0.52623 0.698265,-1.17726 0.698265,-1.95311 0,-0.66116 -0.16529,-1.19076 -0.495869,-1.58881 -0.323833,-0.40479 -0.974872,-0.76572 -1.953117,-1.08281 z" style="color:#000000;font-variant-ligatures:normal;font-variant-position:normal;font-variant-caps:normal;font-variant-numeric:normal;font-variant-alternates:normal;font-variant-east-asian:normal;font-feature-settings:normal;font-variation-settings:normal;text-indent:0;text-decoration-line:none;text-decoration-style:solid;text-decoration-color:#000000;text-transform:none;direction:ltr;text-orientation:mixed;dominant-baseline:auto;baseline-shift:baseline;white-space:normal;shape-padding:0;shape-margin:0;inline-size:0;isolation:auto;mix-blend-mode:normal;color-interpolation:sRGB;color-interpolation-filters:linearRGB;solid-color:#000000;solid-opacity:1;vector-effect:none;color-rendering:auto;image-rendering:auto;shape-rendering:auto;enable-background:accumulate;" clip-rule="nonzero" display="inline" overflow="visible" visibility="visible" fill="#000000" fill-opacity="1" fill-rule="nonzero" stroke="none" stop-color="#000000" stop-opacity="1"/><path d="m 30.425781,218.47461 v 0.9707 c -1.045333,0.16294 -1.933737,0.46512 -2.560547,1.01563 -1.017817,0.89059 -1.546875,2.11005 -1.546875,3.52344 0,0.79961 0.172862,1.53999 0.525391,2.1914 v 0.002 l 0.002,0.002 c 0.360292,0.65159 0.883035,1.1729 1.539063,1.53906 0.684913,0.38379 1.364108,0.6 2.041015,0.77148 v 4.63477 c -0.323874,-0.14286 -0.665928,-0.20857 -0.949219,-0.56641 -0.270616,-0.34861 -0.512057,-0.98783 -0.646484,-1.91601 l -0.07422,-0.51758 -2.783203,0.52344 0.0332,0.44531 c 0.07203,1.00839 0.330277,1.89316 0.792969,2.62891 l 0.002,0.002 c 0.454993,0.71184 1.010318,1.2581 1.666016,1.60156 l 0.0039,0.002 h 0.0039 c 0.526756,0.26648 1.221645,0.41135 1.951172,0.53711 v 1.94727 h 0.5 1.572266 v -1.95117 c 1.164769,-0.15404 2.201199,-0.58379 2.980469,-1.40235 0.88869,-0.93349 1.341797,-2.13429 1.341796,-3.50195 0,-0.63031 -0.109846,-1.22883 -0.330078,-1.7832 -0.212155,-0.55108 -0.523367,-1.03899 -0.929687,-1.44531 -0.409819,-0.40982 -0.927261,-0.74419 -1.539063,-1.01368 l -0.002,-0.002 h -0.002 c -0.295656,-0.12767 -0.878358,-0.28347 -1.519531,-0.45117 v -4.06836 c 0.16728,0.0959 0.40114,0.1421 0.521484,0.2793 l 0.0039,0.002 0.002,0.004 c 0.255849,0.28092 0.454552,0.72649 0.552734,1.37695 l 0.07617,0.49414 2.865234,-0.43164 -0.06836,-0.49024 c -0.175624,-1.25132 -0.719374,-2.29343 -1.611328,-3.03515 -0.60022,-0.50236 -1.444505,-0.72337 -2.341797,-0.87696 v -1.04101 z m 1,1 h 0.07227 v 0.82422 l 0.453125,0.043 c 0.987772,0.0944 1.72051,0.37846 2.246094,0.81836 h 0.002 c 0.578025,0.48005 0.916146,1.13602 1.115234,1.92968 l -0.947265,0.14258 c -0.140438,-0.53139 -0.277329,-1.06635 -0.59961,-1.42187 -0.415806,-0.47241 -0.992521,-0.77981 -1.667969,-0.91797 l -0.601562,-0.12305 v 6.25586 l 0.378906,0.0957 c 0.908576,0.22715 1.521719,0.41288 1.746094,0.50977 0.519409,0.22933 0.926055,0.50028 1.230469,0.80469 0.307534,0.30753 0.541415,0.66977 0.707031,1.10156 v 0.002 l 0.002,0.004 c 0.171065,0.43061 0.257813,0.89747 0.257812,1.41406 0,1.15554 -0.349426,2.05937 -1.066406,2.8125 -0.715819,0.75191 -1.60908,1.14545 -2.779297,1.20117 l -0.476562,0.0215 v 1.82031 h -0.07227 v -1.76367 l -0.4375,-0.0547 c -0.869322,-0.10947 -1.555016,-0.30182 -2.05664,-0.55469 -0.476983,-0.24984 -0.905976,-0.65452 -1.28711,-1.25 -0.289272,-0.45998 -0.415956,-1.08531 -0.515625,-1.74023 l 0.886719,-0.16602 c 0.156083,0.73674 0.322406,1.4417 0.673828,1.89258 l 0.002,0.002 v 0.002 c 0.577185,0.72907 1.332127,1.18117 2.183594,1.26953 l 0.550781,0.0566 v -6.76758 l -0.40625,-0.0762 c -0.687537,-0.13007 -1.403188,-0.39795 -2.146484,-0.81445 v -0.002 c -0.503518,-0.28103 -0.876636,-0.65437 -1.150391,-1.14843 -4.65e-4,-8.4e-4 -0.0015,-0.001 -0.002,-0.002 -0.266873,-0.49462 -0.402344,-1.05488 -0.402344,-1.71093 0,-1.17728 0.387842,-2.0564 1.205079,-2.77149 0.505802,-0.44466 1.310477,-0.75619 2.453124,-0.87109 l 0.449219,-0.0449 z m 0,1.30664 -0.574219,0.0879 c -0.798411,0.12167 -1.484772,0.45937 -1.978515,1.00977 v 0.002 l -0.002,0.002 c -0.479609,0.54356 -0.732422,1.22403 -0.732422,1.95899 0,0.71307 0.209706,1.36496 0.630859,1.87695 v 0.002 l 0.002,0.002 c 0.444084,0.52948 1.124783,0.89199 2.009766,1.1582 l 0.644531,0.19336 z m -1,1.36328 v 3.42383 c -0.317003,-0.1622 -0.735609,-0.309 -0.884765,-0.48633 v -0.002 c -0.266236,-0.32429 -0.402344,-0.71075 -0.402344,-1.23828 0,-0.51827 0.152641,-0.92193 0.480469,-1.29492 0.192126,-0.21418 0.527073,-0.28173 0.80664,-0.40235 z m 1.072266,5.57422 v 6.79883 l 0.5625,-0.0703 c 0.814815,-0.10088 1.529326,-0.47602 2.0625,-1.08594 0.546308,-0.61757 0.824219,-1.40736 0.824219,-2.28321 0,-0.74288 -0.193726,-1.40197 -0.609375,-1.90429 -0.437725,-0.54527 -1.165099,-0.91338 -2.185547,-1.24414 z m 1,1.51367 c 0.407532,0.19876 0.932402,0.40574 1.0625,0.56836 l 0.0039,0.004 0.002,0.004 c 0.243648,0.29338 0.38086,0.69171 0.38086,1.26953 0,0.67585 -0.187554,1.18621 -0.572266,1.6211 l -0.002,0.002 v 0.002 c -0.234151,0.26859 -0.572429,0.33205 -0.875,0.45899 z" style="color:#000000;font-variant-ligatures:normal;font-variant-position:normal;font-variant-caps:normal;font-variant-numeric:normal;font-variant-alternates:normal;font-variant-east-asian:normal;font-feature-settings:normal;font-variation-settings:normal;text-indent:0;text-decoration-line:none;text-decoration-style:solid;text-decoration-color:#000000;text-transform:none;direction:ltr;text-orientation:mixed;dominant-baseline:auto;baseline-shift:baseline;white-space:normal;shape-padding:0;shape-margin:0;inline-size:0;isolation:auto;mix-blend-mode:normal;color-interpolation:sRGB;color-interpolation-filters:linearRGB;solid-color:#000000;solid-opacity:1;vector-effect:none;color-rendering:auto;image-rendering:auto;shape-rendering:auto;enable-background:accumulate;" clip-rule="nonzero" display="inline" overflow="visible" visibility="visible" fill-opacity="1" fill-rule="nonzero" stroke="none" stop-color="#000000" stop-opacity="1"/></g></g><text x="0" y="31.933334" fill="#000000" font-size="5px" font-weight="bold" font-family="'Helvetica Neue', Helvetica, Arial-Unicode, Arial, Sans-serif">Created by Leanbean</text><text x="0" y="36.933334" fill="#000000" font-size="5px" font-weight="bold" font-family="'Helvetica Neue', Helvetica, Arial-Unicode, Arial, Sans-serif">from the Noun Project</text></svg>