<svg xmlns="http://www.w3.org/2000/svg" viewBox="0 0 64 80" x="0px" y="0px"><title>price, down, sale, shop</title><g><path d="M60.76,34.1A3.28,3.28,0,0,0,57.69,32H54V10a5,5,0,0,0-5-5H15a5,5,0,0,0-5,5V32H6.3a3.29,3.29,0,0,0-2.24,5.71L27.08,59A7.1,7.1,0,0,0,32,61a7,7,0,0,0,4.88-2l23-21.34A3.28,3.28,0,0,0,60.76,34.1ZM34.14,56.16a3.09,3.09,0,0,1-4.31,0L8.1,36H12a2,2,0,0,0,2-2V10a1,1,0,0,1,1-1H49a1,1,0,0,1,1,1V34a2,2,0,0,0,2,2h3.9Z"/><path d="M32,27H30a2,2,0,0,1,0-4h5a2,2,0,0,0,0-4H34V18a2,2,0,0,0-4,0v1a6,6,0,0,0,0,12h2a2,2,0,0,1,2,2v1a2,2,0,0,1-2,2H27a2,2,0,0,0,0,4h1v1a2,2,0,0,0,4,0V40a6,6,0,0,0,6-6V33A6,6,0,0,0,32,27Z"/></g><text x="0" y="79" fill="#000000" font-size="5px" font-weight="bold" font-family="'Helvetica Neue', Helvetica, Arial-Unicode, Arial, Sans-serif">Created by Jordan Alfarishy</text><text x="0" y="84" fill="#000000" font-size="5px" font-weight="bold" font-family="'Helvetica Neue', Helvetica, Arial-Unicode, Arial, Sans-serif">from the Noun Project</text></svg>